<svg width="156" height="63" viewBox="0 0 156 63" fill="none" xmlns="http://www.w3.org/2000/svg">
<path fill-rule="evenodd" clip-rule="evenodd" d="M0.0160441 2.24891V4.4824H15.1688H30.3215V2.24891V0.0154111H15.1688H0.0160441V2.24891ZM34.3325 2.24109V4.4824H56.072C70.5783 4.4824 77.7654 4.4078 77.6731 4.25794C77.4135 3.83715 74.8415 2.19955 73.4704 1.58243C70.156 0.0904565 70.9829 0.148081 51.7693 0.0703551L34.3325 0V2.24109ZM86.9214 2.24891V4.4824H99.6392C109.705 4.4824 112.342 4.42411 112.283 4.20322C112.242 4.04978 111.914 3.0447 111.552 1.96972L110.896 0.0154111H98.9085H86.9214V2.24891ZM131.511 0.517948C131.022 1.82052 130.151 4.29613 130.151 4.38413C130.151 4.43818 135.967 4.4824 143.076 4.4824H156V2.24891V0.0154111H143.85H131.7L131.511 0.517948ZM0.0637306 10.6804L0.127461 12.858L15.2245 12.9154L30.3215 12.9728V10.7378V8.5027H15.1607H0L0.0637306 10.6804ZM34.3325 10.6234V12.7463H58.5201H82.7078L82.557 11.9088C82.4741 11.4482 82.1877 10.5184 81.9203 9.84279L81.4345 8.61437L57.8834 8.55742L34.3325 8.50069V10.6234ZM86.9214 10.7362V12.9697H101.071C113.274 12.9697 115.221 12.9252 115.221 12.6463C115.221 12.4685 114.911 11.4634 114.532 10.4128L113.842 8.5027H100.382H86.9214V10.7362ZM127.951 10.5017C127.568 11.6012 127.254 12.556 127.254 12.6235C127.254 12.6912 133.722 12.7463 141.627 12.7463H156V10.6245V8.5027H142.324H128.647L127.951 10.5017ZM43.2459 18.9968V21.2336H49.7161H56.1863L56.1226 19.056L56.0588 16.8783L49.6524 16.8191L43.2459 16.7597V18.9968ZM8.48374 19.1118V21.2336H14.9459H21.4081V19.1118V16.99H14.9459H8.48374V19.1118ZM69.3175 19.1118V21.2336H75.8726H82.4277L82.669 20.1059C82.8018 19.4857 82.9104 18.5309 82.9104 17.9841V16.99H76.1139H69.3175V19.1118ZM95.3891 19.1118V21.2336H106.884C115.991 21.2336 118.355 21.1756 118.265 20.9544C118.202 20.801 117.872 19.846 117.531 18.8326L116.912 16.99H106.151H95.3891V19.1118ZM125.582 17.2692C125.529 17.4228 125.183 18.3777 124.815 19.391L124.146 21.2336H135.728H147.309V19.1118V16.99H136.495C128.044 16.99 125.659 17.051 125.582 17.2692ZM8.48374 27.2641V29.4976H14.9459H21.4081V27.2641V25.0306H14.9459H8.48374V27.2641ZM43.2459 27.2641V29.4976H60.036H76.8261L78.0383 28.2133C79.3827 26.7894 80.2364 25.6481 80.2364 25.2754C80.2364 25.0998 74.9989 25.0306 61.7411 25.0306H43.2459V27.2641ZM95.3891 27.2621V29.4976H101.73H108.071L108.137 27.8783L108.202 26.259L108.759 27.8224L109.316 29.3859L121.386 29.4437L133.455 29.5014L134.014 27.8803L134.573 26.259L134.59 27.8783L134.608 29.4976H140.959H147.309V27.2641V25.0306H135.072H122.834L122.115 27.0456C121.72 28.1539 121.335 29.0006 121.261 28.9271C121.187 28.8534 120.814 27.9719 120.433 26.9679L119.739 25.1422L107.564 25.0844L95.3891 25.0268V27.2621ZM8.48374 35.7513V37.9848H14.9459H21.4081V35.7513V33.5179H14.9459H8.48374V35.7513ZM43.2459 35.7513V37.9848H61.9791H80.7123L80.2018 37.2661C79.9211 36.8708 79.0495 35.8657 78.2656 35.0326L76.8399 33.5179H60.0429H43.2459V35.7513ZM95.3891 35.7513V37.9848H101.74H108.091V35.7513V33.5179H101.74H95.3891V35.7513ZM111.549 35.6663C111.975 36.848 112.324 37.8542 112.324 37.9024C112.324 37.9504 116.411 37.9636 121.405 37.9315L130.485 37.8732L131.195 35.863C131.586 34.7574 131.911 33.7774 131.919 33.6854C131.927 33.5933 127.173 33.5179 121.353 33.5179H110.773L111.549 35.6663ZM134.608 35.7513V37.9848H140.959H147.309V35.7513V33.5179H140.959H134.608V35.7513ZM8.48374 44.127V46.2488H14.9459H21.4081V44.127V42.0051H14.9459H8.48374V44.127ZM43.2459 44.127V46.2488H49.7081H56.1703V44.127V42.0051H49.7081H43.2459V44.127ZM69.5403 44.127V46.2488H76.4738H83.4073L83.2553 44.9645C83.1718 44.2583 83.006 43.3035 82.8867 42.8427L82.6704 42.0051H76.1052H69.5403V44.127ZM95.3891 44.127V46.2488H101.74H108.091V44.127V42.0051H101.74H95.3891V44.127ZM113.884 42.1894C113.884 42.3656 114.777 45.038 115.112 45.8615C115.26 46.2269 115.72 46.2515 121.418 46.1965L127.563 46.1371L128.295 44.0711L129.027 42.0051H121.456C117.291 42.0051 113.884 42.088 113.884 42.1894ZM134.608 44.127V46.2488H140.959H147.309V44.127V42.0051H140.959H134.608V44.127ZM0.0160441 52.3909V54.5127H15.1688H30.3215V52.3909V50.2691H15.1688H0.0160441V52.3909ZM34.3325 52.3909V54.5127H57.7934H81.2545L81.6137 53.8985C81.9852 53.2635 82.6875 51.0823 82.6875 50.5634C82.6875 50.3216 78.3735 50.2691 58.51 50.2691H34.3325V52.3909ZM86.9214 52.3909V54.5127H97.506H108.091V52.3909V50.2691H97.506H86.9214V52.3909ZM116.781 50.4808C116.781 50.5972 117.092 51.5547 117.473 52.6084L118.165 54.5243L121.408 54.4627L124.652 54.401L125.285 52.5126C125.633 51.474 125.917 50.5445 125.917 50.4466C125.917 50.349 123.862 50.2691 121.349 50.2691C118.62 50.2691 116.781 50.3544 116.781 50.4808ZM134.608 52.3909V54.5127H145.304H156V52.3909V50.2691H145.304H134.608V52.3909ZM0.0160441 60.7665V63H15.1688H30.3215V60.7665V58.533H15.1688H0.0160441V60.7665ZM34.3325 60.7665V63L50.9894 62.9955C60.7936 62.9931 68.2748 62.9002 69.174 62.7697C72.1825 62.3337 76.2993 60.5018 77.662 58.9929L78.0771 58.533H56.2048H34.3325V60.7665ZM86.9214 60.7665V63H97.506H108.091V60.7665V58.533H97.506H86.9214V60.7665ZM119.735 58.8122C119.793 58.9659 120.125 59.9709 120.474 61.0457C120.837 62.1685 121.23 63 121.395 63C121.554 63 121.684 62.9618 121.684 62.9149C121.684 62.8682 122.033 61.8631 122.459 60.6814L123.235 58.533H121.433C120.083 58.533 119.657 58.6031 119.735 58.8122ZM134.608 60.7665V63H145.304H156V60.7665V58.533H145.304H134.608V60.7665Z" fill="#989898"/>
</svg>
