<svg width="180" height="87" viewBox="0 0 180 87" fill="none" xmlns="http://www.w3.org/2000/svg">
<g clip-path="url(#clip0_64_19)">
<path d="M33.5006 27.6797V32.5848H20.9213V73.8808H14.8965V32.5848H2.25098V27.6797H33.5006ZM68.4589 74.3448C64.1775 74.3448 60.2713 73.3506 56.7403 71.362C53.2093 69.3292 50.4065 66.5231 48.332 62.9437C46.3017 59.3201 45.2865 55.2546 45.2865 50.7471C45.2865 46.2397 46.3017 42.1963 48.332 38.6168C50.4065 34.9932 53.2093 32.1871 56.7403 30.1986C60.2713 28.1658 64.1775 27.1494 68.4589 27.1494C72.7848 27.1494 76.7131 28.1658 80.2441 30.1986C83.7751 32.1871 86.5558 34.9711 88.5862 38.5506C90.6165 42.13 91.6317 46.1955 91.6317 50.7471C91.6317 55.2987 90.6165 59.3643 88.5862 62.9437C86.5558 66.5231 83.7751 69.3292 80.2441 71.362C76.7131 73.3506 72.7848 74.3448 68.4589 74.3448ZM68.4589 69.1083C71.6813 69.1083 74.5724 68.357 77.1324 66.8546C79.7365 65.3521 81.7668 63.2088 83.2234 60.4248C84.7241 57.6408 85.4744 54.4149 85.4744 50.7471C85.4744 47.0351 84.7241 43.8092 83.2234 41.0694C81.7668 38.2854 79.7579 36.1422 77.1986 34.6397C74.6386 33.1372 71.7248 32.386 68.4589 32.386C65.1927 32.386 62.2796 33.1372 59.7196 34.6397C57.1596 36.1422 55.1293 38.2854 53.6286 41.0694C52.172 43.8092 51.4437 47.0351 51.4437 50.7471C51.4437 54.4149 52.172 57.6408 53.6286 60.4248C55.1293 63.2088 57.1596 65.3521 59.7196 66.8546C62.3237 68.357 65.2368 69.1083 68.4589 69.1083ZM137.058 41.202C137.058 45.0466 135.734 48.2504 133.085 50.8134C130.481 53.3323 126.487 54.5917 121.102 54.5917H112.23V73.8808H106.205V27.6797H121.102C126.31 27.6797 130.261 28.9391 132.953 31.458C135.69 33.9768 137.058 37.2248 137.058 41.202ZM121.102 49.6203C124.457 49.6203 126.928 48.8911 128.517 47.4328C130.106 45.9746 130.901 43.8976 130.901 41.202C130.901 35.5014 127.634 32.6511 121.102 32.6511H112.23V49.6203H121.102Z" fill="#989898"/>
<path d="M177.586 69.0479H151.379C150.046 69.0479 148.966 70.1298 148.966 71.4645C148.966 72.7992 150.046 73.8812 151.379 73.8812H177.586C178.919 73.8812 180 72.7992 180 71.4645C180 70.1298 178.919 69.0479 177.586 69.0479Z" fill="#989898"/>
<path d="M172.759 48.3335H156.207C154.874 48.3335 153.793 49.4155 153.793 50.7502C153.793 52.0848 154.874 53.1668 156.207 53.1668H172.759C174.092 53.1668 175.173 52.0848 175.173 50.7502C175.173 49.4155 174.092 48.3335 172.759 48.3335Z" fill="#989898"/>
<path d="M167.931 30.381H161.034C159.701 30.381 158.621 31.463 158.621 32.7976C158.621 34.1323 159.701 35.2143 161.034 35.2143H167.931C169.264 35.2143 170.345 34.1323 170.345 32.7976C170.345 31.463 169.264 30.381 167.931 30.381Z" fill="#989898"/>
</g>
<defs>
<clipPath id="clip0_64_19">
<rect width="180" height="87" fill="white"/>
</clipPath>
</defs>
</svg>
