<svg width="192" height="51" viewBox="0 0 192 51" fill="none" xmlns="http://www.w3.org/2000/svg">
<path fill-rule="evenodd" clip-rule="evenodd" d="M86.4137 20.5216C79.4443 31.7846 72.3527 43.2496 70.6551 45.9991L67.5681 50.9986L69.5167 50.894L71.4657 50.789L86.0061 27.62C94.003 14.877 100.693 4.40491 100.872 4.34877C101.051 4.29228 104.598 9.65789 108.753 16.2719L116.309 28.2972H118.365H120.421L119.845 27.3382C119.528 26.8106 115.598 20.4948 111.11 13.3026L102.952 0.225965L101.019 0.134602L99.0853 0.0435889L86.4137 20.5216ZM142.908 25.4998V51L144.756 50.8943L146.604 50.789L146.695 27.1639L146.785 3.53872L161.478 3.54395C177.732 3.54953 178.917 3.67053 182.791 5.71607C186.853 7.86064 188.906 11.7338 188.588 16.6478C188.203 22.5867 184.148 26.6638 177.169 28.1288C175.529 28.4729 172.494 28.6358 167.635 28.64L160.508 28.6459V30.2151V31.7843L168.163 31.7784C176.897 31.7714 179.296 31.4154 183.295 29.5344C186.655 27.9534 189.4 25.3712 190.873 22.4064C191.975 20.1872 192.011 19.9766 191.999 15.7499C191.987 11.7725 191.903 11.2065 191.049 9.37858C189.175 5.36492 185.246 2.3259 180.043 0.866546C178.218 0.354639 175.55 0.255256 160.42 0.137043L142.908 0V25.4998ZM0 25.6819V50.9634H1.75995H3.51991V27.2511V3.53872H23.4074H43.2948V1.96952V0.40032H21.6474H0V25.6819ZM54.5585 25.6819V50.9634H56.4945H58.4304V25.6819V0.40032H56.4945H54.5585V25.6819ZM14.0796 26.3793V27.9485H23.4074H32.7351V26.3793V24.8101H23.4074H14.0796V26.3793ZM122.82 38.6713C123.014 39.0071 124.816 41.8708 126.824 45.0353L130.474 50.789L132.488 50.8943L134.502 50.9993L134.041 50.1673C133.788 49.7094 132.001 46.7984 130.071 43.698L126.562 38.0611H124.515C122.666 38.0611 122.502 38.12 122.82 38.6713Z" fill="#989898"/>
</svg>
