<svg width="65" height="54" viewBox="0 0 65 54" fill="none" xmlns="http://www.w3.org/2000/svg">
<mask id="path-1-inside-1_75_69" fill="white">
<path fill-rule="evenodd" clip-rule="evenodd" d="M35.4826 0.713452C34.5495 1.73972 24.6027 50.88 25.0051 52.4759C25.4602 54.2802 28.6933 54.5714 29.3656 52.8694C29.8034 51.7611 39.5253 3.32402 39.5253 2.25221C39.5253 0.238334 36.8431 -0.782353 35.4826 0.713452ZM10.4789 11.6257C8.61406 13.9403 0.970775 24.7327 0.286411 26.0167C-0.365138 27.2401 -0.307711 27.3484 4.90468 34.7157C10.6779 42.8756 11.7747 44.1665 12.9331 44.1665C14.1213 44.1665 15.3459 42.9225 15.3459 41.7158C15.3459 41.2316 13.2086 37.8177 10.5963 34.1289C7.9841 30.4405 5.84681 27.2247 5.84681 26.9832C5.84681 26.7418 7.9841 23.526 10.5963 19.8376C15.3774 13.0863 15.9555 11.7567 14.6675 10.4748C13.4607 9.27459 12.0635 9.65864 10.4789 11.6257ZM50.1707 10.5857C49.7778 11.0178 49.4561 11.7159 49.4561 12.1369C49.4561 12.5583 51.7039 16.0723 54.4513 19.9463L59.4465 26.9897L54.8896 33.396C49.2583 41.3124 49.1007 41.6298 50.0692 43.1003C50.6452 43.9745 51.0955 44.1884 52.1461 44.0845C53.3503 43.9655 54.0761 43.1226 59.2436 35.8442C62.4098 31.3852 65 27.3986 65 26.985C65 26.1898 54.6296 11.2532 53.4418 10.3369C52.4414 9.56585 50.9984 9.67539 50.1707 10.5857Z"/>
</mask>
<path fill-rule="evenodd" clip-rule="evenodd" d="M35.4826 0.713452C34.5495 1.73972 24.6027 50.88 25.0051 52.4759C25.4602 54.2802 28.6933 54.5714 29.3656 52.8694C29.8034 51.7611 39.5253 3.32402 39.5253 2.25221C39.5253 0.238334 36.8431 -0.782353 35.4826 0.713452ZM10.4789 11.6257C8.61406 13.9403 0.970775 24.7327 0.286411 26.0167C-0.365138 27.2401 -0.307711 27.3484 4.90468 34.7157C10.6779 42.8756 11.7747 44.1665 12.9331 44.1665C14.1213 44.1665 15.3459 42.9225 15.3459 41.7158C15.3459 41.2316 13.2086 37.8177 10.5963 34.1289C7.9841 30.4405 5.84681 27.2247 5.84681 26.9832C5.84681 26.7418 7.9841 23.526 10.5963 19.8376C15.3774 13.0863 15.9555 11.7567 14.6675 10.4748C13.4607 9.27459 12.0635 9.65864 10.4789 11.6257ZM50.1707 10.5857C49.7778 11.0178 49.4561 11.7159 49.4561 12.1369C49.4561 12.5583 51.7039 16.0723 54.4513 19.9463L59.4465 26.9897L54.8896 33.396C49.2583 41.3124 49.1007 41.6298 50.0692 43.1003C50.6452 43.9745 51.0955 44.1884 52.1461 44.0845C53.3503 43.9655 54.0761 43.1226 59.2436 35.8442C62.4098 31.3852 65 27.3986 65 26.985C65 26.1898 54.6296 11.2532 53.4418 10.3369C52.4414 9.56585 50.9984 9.67539 50.1707 10.5857Z" fill="#0F1137"/>
<path d="M35.4826 0.713452L13.2895 -19.4724L13.2854 -19.4678L35.4826 0.713452ZM25.0051 52.4759L-4.08436 59.811L-4.08382 59.8131L25.0051 52.4759ZM29.3656 52.8694L1.46374 41.8474L1.46335 41.8483L29.3656 52.8694ZM10.4789 11.6257L33.84 30.4475L33.8413 30.4459L10.4789 11.6257ZM0.286411 26.0167L-26.188 11.9062L-26.1928 11.9152L0.286411 26.0167ZM4.90468 34.7157L-19.5857 52.0427L-19.5855 52.0429L4.90468 34.7157ZM10.5963 34.1289L35.0792 16.7914L35.0782 16.79L10.5963 34.1289ZM10.5963 19.8376L35.0782 37.1765L35.079 37.1754L10.5963 19.8376ZM14.6675 10.4748L35.8302 -10.7888L35.8229 -10.7961L14.6675 10.4748ZM50.1707 10.5857L27.9747 -9.59694L27.9736 -9.59572L50.1707 10.5857ZM54.4513 19.9463L29.9805 37.3008L29.9806 37.3009L54.4513 19.9463ZM59.4465 26.9897L83.8928 44.3788L96.2435 27.0156L83.9172 9.63503L59.4465 26.9897ZM54.8896 33.396L79.3356 50.7855L79.3358 50.7851L54.8896 33.396ZM50.0692 43.1003L25.015 59.6015L25.018 59.6059L50.0692 43.1003ZM52.1461 44.0845L49.196 14.2299L49.1917 14.2303L52.1461 44.0845ZM59.2436 35.8442L34.7828 18.4756L34.7818 18.477L59.2436 35.8442ZM53.4418 10.3369L71.7657 -13.4167L71.7562 -13.424L53.4418 10.3369ZM13.2854 -19.4678C10.2135 -16.0891 8.67144 -12.7757 8.41572 -12.246C7.85162 -11.0775 7.47273 -10.1016 7.27944 -9.58614C6.87856 -8.51712 6.59664 -7.59341 6.4531 -7.1111C6.13795 -6.05218 5.85669 -4.96308 5.64009 -4.09486C5.18297 -2.26255 4.65206 0.0518425 4.10452 2.52494C2.99426 7.53967 1.63685 14.0192 0.339342 20.4293C-0.958311 26.8402 -2.23087 33.3536 -3.165 38.4385C-3.62619 40.9489 -4.03997 43.3009 -4.33534 45.1818C-4.47644 46.0804 -4.63912 47.1765 -4.76132 48.25C-4.81832 48.7507 -4.91233 49.6375 -4.96486 50.6798C-4.99068 51.1921 -5.02512 52.0881 -4.99502 53.1877C-4.97657 53.8616 -4.91024 56.5357 -4.08436 59.811L54.0946 45.1409C54.9079 48.3663 54.9667 50.9673 54.9825 51.5456C55.01 52.5497 54.9778 53.3276 54.9591 53.7001C54.9206 54.4627 54.8597 54.9829 54.8537 55.0358C54.8335 55.2136 54.8441 55.0893 54.9383 54.4895C55.1136 53.3736 55.4181 51.6166 55.8475 49.2796C56.6943 44.6698 57.8913 38.5348 59.1467 32.3328C60.4022 26.1301 61.6813 20.0324 62.6859 15.4948C63.1958 13.1917 63.592 11.4862 63.8558 10.4285C63.9997 9.85169 64.0274 9.77826 63.9603 10.0038C63.9408 10.0695 63.7676 10.6588 63.4591 11.4815C63.312 11.8739 62.9752 12.7487 62.4489 13.8388C62.1803 14.3952 61.7413 15.2606 61.1236 16.2811C60.5771 17.1839 59.4512 18.9463 57.6798 20.8947L13.2854 -19.4678ZM-4.08382 59.8131C0.514231 78.0425 16.7642 83.1769 24.4096 83.8663C31.8325 84.5356 49.932 82.4629 57.2678 63.8905L1.46335 41.8483C8.12697 24.978 24.2737 23.6106 29.7982 24.1088C35.5452 24.627 49.9511 28.7136 54.094 45.1387L-4.08382 59.8131ZM57.2675 63.8915C57.8799 62.3412 58.2354 61.0366 58.2662 60.9276C58.3851 60.5058 58.4758 60.1515 58.5271 59.9474C58.634 59.5225 58.728 59.1189 58.7947 58.8276C58.9353 58.2137 59.0955 57.481 59.2588 56.7206C59.5918 55.1702 60.0265 53.0909 60.5183 50.7085C61.5062 45.9227 62.7741 39.6731 64.023 33.4508C65.2719 27.2286 66.5124 20.981 67.4448 16.1994C67.9089 13.8193 68.3086 11.7415 68.5976 10.1924C68.7392 9.43384 68.8737 8.698 68.9804 8.07872C69.0307 7.787 69.101 7.36992 69.1675 6.92483C69.1991 6.71356 69.2552 6.32803 69.3105 5.86126C69.3149 5.8234 69.5253 4.22194 69.5253 2.25221H9.52527C9.52527 1.05011 9.60017 0.11759 9.62745 -0.209261C9.66398 -0.646947 9.70295 -0.993046 9.72597 -1.18769C9.77184 -1.57544 9.814 -1.85953 9.82719 -1.94769C9.85692 -2.14654 9.87261 -2.23067 9.85155 -2.10848C9.81563 -1.89993 9.74085 -1.48415 9.61572 -0.81357C9.37139 0.495775 9.00815 2.38662 8.554 4.71558C7.6499 9.35197 6.43255 15.4839 5.19624 21.6435C3.95994 27.803 2.71528 33.9374 1.75718 38.5788C1.27599 40.9099 0.879334 42.805 0.596902 44.1198C0.452496 44.7921 0.358927 45.2147 0.309007 45.4326C0.280475 45.5572 0.295024 45.4886 0.339421 45.3121C0.359523 45.2322 0.423168 44.9804 0.519544 44.6387C0.527693 44.6098 0.865 43.363 1.46374 41.8474L57.2675 63.8915ZM69.5253 2.25221C69.5253 -13.5815 58.7734 -24.0318 48.6852 -27.8713C38.6037 -31.7082 23.801 -31.0291 13.2895 -19.4724L57.6756 20.8993C48.5246 30.9602 35.7433 31.4018 27.343 28.2047C18.936 25.005 9.52527 16.0721 9.52527 2.25221H69.5253ZM-12.8822 -7.19608C-14.5165 -5.16765 -17.4658 -1.06263 -19.5419 1.86872C-20.7129 3.52208 -21.8846 5.19724 -22.8409 6.59257C-23.1972 7.11255 -25.0294 9.73237 -26.188 11.9062L26.7608 40.1272C26.4789 40.6561 26.2485 41.0468 26.1537 41.2062C26.0396 41.398 25.955 41.534 25.9187 41.5919C25.8491 41.7031 25.8331 41.7252 25.9023 41.62C26.0359 41.4171 26.2815 41.0516 26.6518 40.5112C27.3794 39.4495 28.3633 38.0411 29.4218 36.5466C30.4761 35.058 31.5462 33.566 32.438 32.3426C33.4693 30.9281 33.893 30.3817 33.84 30.4475L-12.8822 -7.19608ZM-26.1928 11.9152C-26.1934 11.9164 -27.1629 13.6663 -27.9928 15.871C-28.9938 18.5304 -29.927 22.0995 -29.9959 26.3721C-30.1258 34.4239 -27.0705 40.3029 -26.1009 42.1294C-24.3556 45.4168 -21.4135 49.4592 -19.5857 52.0427L29.395 17.3888C28.0417 15.4759 27.2203 14.3118 26.6592 13.4909C25.9497 12.453 26.3256 12.9244 26.894 13.9951C27.2792 14.7207 30.1166 19.8828 29.9962 27.34C29.9321 31.3153 29.0606 34.6176 28.1608 37.0081C27.7509 38.0971 27.3582 38.9343 27.1291 39.4033C27.0107 39.6457 26.9134 39.8353 26.8563 39.9454C26.8267 40.0024 26.8032 40.0471 26.7888 40.0745C26.7813 40.0885 26.7755 40.0995 26.7718 40.1066C26.768 40.1136 26.7658 40.1179 26.7656 40.1182L-26.1928 11.9152ZM-19.5855 52.0429C-16.9631 55.7494 -14.4029 59.3477 -12.2143 61.924C-11.3319 62.9627 -2.70169 74.1665 12.9331 74.1665V14.1665C15.7522 14.1665 18.8692 14.5871 22.0674 15.6642C25.1369 16.6979 27.5125 18.0781 29.1764 19.2399C30.7765 20.3571 31.8852 21.3901 32.4632 21.9597C33.0601 22.5479 33.427 22.9767 33.5132 23.0782C33.6372 23.2242 33.4192 22.9754 32.6008 21.8625C31.8395 20.8272 30.8204 19.4034 29.3949 17.3885L-19.5855 52.0429ZM12.9331 74.1665C23.6569 74.1665 31.5296 68.9444 35.9642 64.4397C40.4326 59.9005 45.3459 52.1132 45.3459 41.7158H-14.6541C-14.6541 32.525 -10.3531 25.963 -6.79402 22.3476C-3.2688 18.7666 3.3976 14.1665 12.9331 14.1665V74.1665ZM45.3459 41.7158C45.3459 37.1058 44.2553 33.6086 43.9733 32.6999C43.526 31.2583 43.0575 30.1254 42.7829 29.4908C42.2229 28.1963 41.6676 27.1436 41.3566 26.5688C40.6839 25.3255 39.9605 24.1344 39.3788 23.2052C38.1544 21.2495 36.6386 18.9934 35.0792 16.7914L-13.8865 51.4664C-12.8337 52.9532 -11.9748 54.2485 -11.4775 55.0429C-11.1983 55.4888 -11.2241 55.4725 -11.4144 55.1208C-11.4842 54.9918 -11.8522 54.3141 -12.2851 53.3133C-12.4961 52.8256 -12.9161 51.8193 -13.3309 50.4827C-13.5437 49.7967 -13.8342 48.7725 -14.086 47.5039C-14.3199 46.3261 -14.6541 44.2842 -14.6541 41.7158H45.3459ZM35.0782 16.79C33.8964 15.1214 32.8841 13.6464 32.2267 12.6573C31.8744 12.1272 31.7549 11.9333 31.7917 11.9931C31.8116 12.0255 31.8679 12.1178 31.9492 12.2566C32.0218 12.3805 32.1754 12.6458 32.3696 13.0071C32.5138 13.2755 32.941 14.0763 33.4119 15.1664C33.642 15.6991 34.0777 16.7469 34.5031 18.1166C34.7214 18.8193 35.0166 19.8603 35.272 21.1445C35.5093 22.3373 35.8468 24.397 35.8468 26.9832H-24.1532C-24.1532 31.5796 -23.0642 35.0524 -22.7971 35.9124C-22.3634 37.3087 -21.9154 38.3887 -21.669 38.9591C-21.1656 40.1246 -20.6899 41.0229 -20.4821 41.4096C-20.017 42.2751 -19.5772 43 -19.3485 43.3728C-18.8294 44.2187 -18.2512 45.1045 -17.7427 45.8696C-16.6784 47.4709 -15.316 49.4481 -13.8856 51.4678L35.0782 16.79ZM35.8468 26.9832C35.8468 29.5695 35.5093 31.6292 35.272 32.822C35.0166 34.1062 34.7214 35.1471 34.5031 35.8499C34.0777 37.2196 33.642 38.2674 33.4119 38.8001C32.941 39.8901 32.5138 40.691 32.3696 40.9594C32.1754 41.3207 32.0218 41.5859 31.9492 41.7099C31.8679 41.8487 31.8116 41.941 31.7917 41.9734C31.7549 42.0332 31.8744 41.8393 32.2267 41.3092C32.8841 40.3201 33.8964 38.8451 35.0782 37.1765L-13.8856 2.4987C-15.316 4.51842 -16.6784 6.49555 -17.7427 8.09687C-18.2512 8.86195 -18.8294 9.74776 -19.3485 10.5937C-19.5772 10.9665 -20.017 11.6914 -20.4821 12.5569C-20.6899 12.9435 -21.1656 13.8419 -21.669 15.0074C-21.9154 15.5778 -22.3634 16.6578 -22.7971 18.0541C-23.0642 18.9141 -24.1532 22.3869 -24.1532 26.9832H35.8468ZM35.079 37.1754C36.8577 34.6637 40.3326 29.8672 42.4194 25.0681C43.6123 22.3248 46.0504 15.9416 45.0072 7.74258C43.8176 -1.60704 38.9031 -7.73043 35.8302 -10.7888L-6.49514 31.7384C-8.92407 29.321 -13.4278 23.8446 -14.5129 15.3157C-15.4517 7.93748 -13.2155 2.54902 -12.6038 1.14224C-11.8989 -0.478676 -11.3099 -1.28264 -11.7725 -0.566116C-12.1126 -0.0393208 -12.7362 0.875639 -13.8863 2.49979L35.079 37.1754ZM35.8229 -10.7961C29.1803 -17.4025 17.8295 -22.6548 4.76607 -19.0652C-5.05868 -16.3656 -10.751 -9.84162 -12.8835 -7.1945L33.8413 30.4459C33.2934 31.126 29.092 36.4744 20.6637 38.7903C15.8179 40.1218 10.2657 40.2266 4.75125 38.4976C-0.511042 36.8476 -4.20496 34.0162 -6.48777 31.7458L35.8229 -10.7961ZM27.9736 -9.59572C25.3688 -6.7308 23.598 -3.74756 22.4186 -1.18757C21.5068 0.791554 19.4561 5.66516 19.4561 12.1369H79.4561C79.4561 15.5713 78.8472 18.2535 78.4296 19.7654C77.9684 21.435 77.4168 22.8261 76.9135 23.9185C75.9931 25.9162 74.5796 28.3343 72.3678 30.7671L27.9736 -9.59572ZM19.4561 12.1369C19.4561 17.4093 20.9021 21.3952 21.1122 22.0061C21.5933 23.4054 22.0823 24.4958 22.3464 25.0649C22.8965 26.2502 23.4338 27.2213 23.7271 27.7408C24.3711 28.8813 25.0713 30.0055 25.6513 30.9123C26.8704 32.8182 28.3979 35.0693 29.9805 37.3008L78.9221 2.59177C77.7573 0.949249 76.7872 -0.493608 76.1955 -1.41853C75.8702 -1.92713 75.8367 -2.00266 75.9734 -1.76054C76.0131 -1.69028 76.3532 -1.09311 76.7697 -0.195767C76.967 0.229287 77.405 1.19726 77.8518 2.49683C78.0797 3.15948 78.4175 4.21755 78.7199 5.55119C78.9873 6.73052 79.4561 9.09891 79.4561 12.1369H19.4561ZM29.9806 37.3009L34.9758 44.3443L83.9172 9.63503L78.922 2.59161L29.9806 37.3009ZM35.0002 9.60063L30.4433 16.007L79.3358 50.7851L83.8928 44.3788L35.0002 9.60063ZM30.4435 16.0066C28.5097 18.7252 25.1065 23.3536 23.1365 27.3196C21.921 29.7666 18.9516 36.2424 19.7503 44.8489C20.5458 53.4221 24.8246 59.3123 25.015 59.6014L75.1234 26.5991C75.1587 26.6528 75.3858 26.9966 75.6732 27.4789C75.9691 27.9755 76.4313 28.788 76.925 29.8399C77.9828 32.0937 79.1231 35.3129 79.4936 39.3049C80.2254 47.1909 77.4658 52.8168 76.8725 54.0111C76.204 55.357 75.7101 55.9785 76.4455 54.8952C77.0169 54.0535 77.8801 52.8315 79.3356 50.7855L30.4435 16.0066ZM25.018 59.6059C26.3518 61.6303 30.3369 67.3971 38.0782 71.0671C45.7827 74.7197 52.739 74.1723 55.1004 73.9386L49.1917 14.2303C50.5026 14.1006 56.7085 13.4982 63.7812 16.8513C70.8907 20.2218 74.3626 25.4445 75.1204 26.5947L25.018 59.6059ZM55.0961 73.9391C59.5114 73.5028 64.589 72.0828 69.5347 68.8263C73.3373 66.3225 75.8524 63.4894 76.9394 62.2274C79.0548 59.7714 81.4715 56.3578 83.7054 53.2115L34.7818 18.477C33.4929 20.2924 32.6127 21.5202 31.9698 22.3929C31.2597 23.3569 31.1954 23.3987 31.4777 23.0709C31.5868 22.9442 33.3717 20.7991 36.5381 18.7142C38.3484 17.5222 40.5258 16.3961 43.0531 15.5493C45.553 14.7116 47.7155 14.3762 49.196 14.2299L55.0961 73.9391ZM83.7044 53.2129C85.4652 50.733 87.1463 48.2728 88.4652 46.2429C89.0966 45.2712 89.8185 44.1322 90.4656 43.0218C90.7587 42.5189 91.2858 41.5977 91.827 40.4923C92.0817 39.9719 92.5811 38.9233 93.0835 37.5746C93.1888 37.2918 95 32.847 95 26.985H35C35 25.1055 35.1778 23.548 35.3448 22.4592C35.5166 21.3388 35.7264 20.3993 35.9037 19.6963C36.2485 18.3295 36.623 17.2606 36.8568 16.6327C37.3197 15.39 37.7603 14.4738 37.9381 14.1107C38.3252 13.32 38.6252 12.8129 38.626 12.8116C38.6885 12.7044 38.5649 12.9183 38.153 13.5522C37.3853 14.7338 36.1881 16.4964 34.7828 18.4756L83.7044 53.2129ZM95 26.985C95 20.958 93.0791 16.3849 93.0053 16.1913C92.4967 14.8561 91.9944 13.8201 91.7445 13.3175C91.2107 12.2443 90.6932 11.3498 90.4143 10.8754C89.795 9.8219 89.1057 8.73847 88.5249 7.84372C87.3063 5.9663 85.7837 3.72088 84.3093 1.59723C82.8302 -0.533261 81.2434 -2.76604 79.8755 -4.61706C79.2095 -5.51823 78.4572 -6.51641 77.726 -7.43248C77.3726 -7.87523 76.8572 -8.50896 76.2561 -9.18973C76.1215 -9.34216 74.3457 -11.4265 71.7657 -13.4167L35.1179 34.0906C33.6035 32.9223 32.5653 31.8787 32.231 31.5402C31.7707 31.0739 31.4385 30.7031 31.2786 30.5221C30.96 30.1612 30.7891 29.9431 30.8329 29.998C30.8962 30.0772 31.149 30.4025 31.6223 31.0429C32.5329 32.2751 33.7614 33.998 35.0233 35.8155C36.29 37.64 37.4342 39.335 38.1972 40.5105C38.6072 41.1422 38.7374 41.3633 38.6899 41.2824C38.6647 41.2395 38.5972 41.124 38.5016 40.9514C38.4148 40.7948 38.2393 40.4734 38.022 40.0365C37.8484 39.6873 37.4044 38.7804 36.9351 37.5484C36.6986 36.9274 36.3124 35.8527 35.9546 34.4743C35.7705 33.7649 35.55 32.8077 35.3683 31.6619C35.1922 30.5513 35 28.9388 35 26.985H95ZM71.7562 -13.424C58.9121 -23.3239 39.7591 -22.5569 27.9747 -9.59694L72.3667 30.7683C62.2377 41.9077 45.9707 42.4556 35.1275 34.0979L71.7562 -13.424Z" fill="#1A75E8" mask="url(#path-1-inside-1_75_69)"/>
</svg>
