<svg width="154" height="69" viewBox="0 0 154 69" fill="none" xmlns="http://www.w3.org/2000/svg">
<path d="M1.29565 37.4785C1.29565 34.8105 1.8355 32.4798 2.91518 30.4865C4.02572 28.4932 5.55271 26.9598 7.49614 25.8865C9.47045 24.8132 11.7223 24.2765 14.2519 24.2765C17.491 24.2765 20.1902 25.1198 22.3495 26.8065C24.5397 28.4932 25.9742 30.8698 26.6529 33.9365H18.2313C17.5218 31.9738 16.1491 30.9925 14.1131 30.9925C12.6632 30.9925 11.5064 31.5598 10.6427 32.6945C9.77888 33.7985 9.34703 35.3932 9.34703 37.4785C9.34703 39.5638 9.77888 41.1738 10.6427 42.3085C11.5064 43.4125 12.6632 43.9645 14.1131 43.9645C16.1491 43.9645 17.5218 42.9832 18.2313 41.0205H26.6529C25.9742 44.0258 24.5397 46.3872 22.3495 48.1045C20.1594 49.8218 17.4601 50.6805 14.2519 50.6805C11.7223 50.6805 9.47045 50.1438 7.49614 49.0705C5.55271 47.9972 4.02572 46.4638 2.91518 44.4705C1.8355 42.4772 1.29565 40.1465 1.29565 37.4785ZM42.6385 50.6805C40.1089 50.6805 37.8262 50.1438 35.7902 49.0705C33.7851 47.9972 32.1964 46.4638 31.0242 44.4705C29.8828 42.4772 29.3121 40.1465 29.3121 37.4785C29.3121 34.8412 29.8982 32.5258 31.0704 30.5325C32.2426 28.5085 33.8468 26.9598 35.8828 25.8865C37.9187 24.8132 40.2015 24.2765 42.7311 24.2765C45.2606 24.2765 47.5434 24.8132 49.5793 25.8865C51.6153 26.9598 53.2195 28.5085 54.3917 30.5325C55.5639 32.5258 56.15 34.8412 56.15 37.4785C56.15 40.1158 55.5485 42.4465 54.3454 44.4705C53.1732 46.4638 51.5537 47.9972 49.4868 49.0705C47.4508 50.1438 45.1681 50.6805 42.6385 50.6805ZM42.6385 43.8725C44.1501 43.8725 45.4302 43.3205 46.4791 42.2165C47.5588 41.1125 48.0986 39.5332 48.0986 37.4785C48.0986 35.4238 47.5742 33.8445 46.5254 32.7405C45.5074 31.6365 44.2426 31.0845 42.7311 31.0845C41.1887 31.0845 39.9084 31.6365 38.8905 32.7405C37.8725 33.8138 37.3635 35.3932 37.3635 37.4785C37.3635 39.5332 37.8571 41.1125 38.8442 42.2165C39.8622 43.3205 41.1269 43.8725 42.6385 43.8725ZM58.7745 37.4325C58.7745 34.7952 59.2681 32.4798 60.2552 30.4865C61.2732 28.4932 62.646 26.9598 64.3735 25.8865C66.1009 24.8132 68.029 24.2765 70.1575 24.2765C71.8542 24.2765 73.3966 24.6292 74.7847 25.3345C76.204 26.0398 77.3145 26.9905 78.1163 28.1865V16.2725H86.0289V50.3125H78.1163V46.6325C77.376 47.8592 76.3117 48.8405 74.9236 49.5765C73.5665 50.3125 71.9775 50.6805 70.1575 50.6805C68.029 50.6805 66.1009 50.1438 64.3735 49.0705C62.646 47.9665 61.2732 46.4178 60.2552 44.4245C59.2681 42.4005 58.7745 40.0698 58.7745 37.4325ZM78.1163 37.4785C78.1163 35.5158 77.5611 33.9672 76.4505 32.8325C75.3711 31.6978 74.0444 31.1305 72.4711 31.1305C70.8979 31.1305 69.556 31.6978 68.4454 32.8325C67.3658 33.9365 66.8259 35.4698 66.8259 37.4325C66.8259 39.3952 67.3658 40.9592 68.4454 42.1245C69.556 43.2592 70.8979 43.8265 72.4711 43.8265C74.0444 43.8265 75.3711 43.2592 76.4505 42.1245C77.5611 40.9898 78.1163 39.4412 78.1163 37.4785ZM95.7331 21.9765C94.3449 21.9765 93.2033 21.5778 92.3089 20.7805C91.4449 19.9525 91.0133 18.9405 91.0133 17.7445C91.0133 16.5178 91.4449 15.5058 92.3089 14.7085C93.2033 13.8805 94.3449 13.4665 95.7331 13.4665C97.0902 13.4665 98.2007 13.8805 99.0647 14.7085C99.959 15.5058 100.407 16.5178 100.407 17.7445C100.407 18.9405 99.959 19.9525 99.0647 20.7805C98.2007 21.5778 97.0902 21.9765 95.7331 21.9765ZM99.6662 24.6445V50.3125H91.7537V24.6445H99.6662ZM118.357 31.1765H114.099V50.3125H106.187V31.1765H103.318V24.6445H106.187V23.9085C106.187 20.7498 107.097 18.3578 108.917 16.7325C110.737 15.0765 113.405 14.2485 116.922 14.2485C117.508 14.2485 117.94 14.2638 118.218 14.2945V20.9645C116.706 20.8725 115.642 21.0872 115.025 21.6085C114.408 22.1298 114.099 23.0652 114.099 24.4145V24.6445H118.357V31.1765ZM148.45 24.6445L132.254 62.5025H123.74L129.663 49.4385L119.159 24.6445H127.997L133.966 40.6985L139.889 24.6445H148.45Z" fill="#001334"/>
<path d="M148.939 51.0312C151.734 51.0312 154 48.7787 154 46C154 43.2213 151.734 40.9688 148.939 40.9688C146.144 40.9688 143.878 43.2213 143.878 46C143.878 48.7787 146.144 51.0312 148.939 51.0312Z" fill="#0245F5"/>
</svg>
