<svg width="52" height="67" viewBox="0 0 52 67" fill="none" xmlns="http://www.w3.org/2000/svg">
<path fill-rule="evenodd" clip-rule="evenodd" d="M3.011 0.585238C1.63661 1.2676 0.805378 2.25417 0.357933 3.73536C-0.119311 5.31436 -0.119311 61.6856 0.357933 63.2646C0.805378 64.7458 1.63661 65.7324 3.011 66.4148L4.19056 67H26H47.8094L48.989 66.4148C50.3634 65.7324 51.1946 64.7458 51.6421 63.2646C52.1193 61.6856 52.1193 5.31436 51.6421 3.73536C51.1892 2.23686 50.2799 1.16126 48.9405 0.540047L47.7853 0.00449675L25.9878 0.00224837L4.19056 0L3.011 0.585238ZM19.2768 7.87902C19.7385 8.00672 20.4288 8.37298 20.8106 8.69314C21.1926 9.01307 21.9324 9.48972 22.4545 9.75232C23.7449 10.4014 24.4491 11.7108 24.5942 13.7314C24.655 14.5759 24.5857 15.7371 24.4403 16.3118C24.2387 17.1097 24.2387 17.4319 24.4403 17.6738C24.825 18.1356 24.5409 19.8183 24.0055 20.2502C23.7619 20.4465 23.3411 21.1205 23.0699 21.7478C22.799 22.3753 22.3315 23.1186 22.031 23.3996C21.5797 23.8219 21.4851 24.1283 21.4858 25.1641C21.4869 26.9848 21.9802 27.6514 24.0504 28.6299C24.9866 29.0726 26.1578 29.7993 26.6531 30.2451C27.4904 30.9985 28.4833 32.6198 28.4833 33.2338C28.4833 33.435 25.9709 33.5 18.1964 33.5H7.90918L8.06631 32.9941C8.67788 31.0244 9.78882 29.8964 12.3039 28.6915C14.503 27.6382 14.938 27.0909 14.938 25.3777C14.938 24.2153 14.8439 23.9383 14.1355 23.0138C13.6941 22.438 13.2745 21.6747 13.2027 21.3177C13.1311 20.9607 12.8862 20.5694 12.6586 20.448C12.0263 20.111 11.6481 18.6157 11.9883 17.7975C12.1931 17.3053 12.2017 16.9135 12.0218 16.2684C11.2106 13.3591 12.6159 9.62709 14.9812 8.40895C16.2614 7.74974 18.0232 7.53233 19.2768 7.87902ZM42.5853 18.3061C44.1208 18.945 44.5468 21.034 43.402 22.311L42.744 23.0453L39.1621 23.1163C35.7417 23.184 35.5514 23.1647 34.9392 22.6851C33.4395 21.5101 33.4716 19.5296 35.0071 18.5008C35.7113 18.0288 36.0221 17.9866 38.7957 17.9866C40.8964 17.9866 42.0513 18.0839 42.5853 18.3061ZM42.8808 28.7794C44.0382 29.4822 44.4543 31.2661 43.7079 32.3271C43.0119 33.317 42.2638 33.5002 38.9357 33.4966C35.5754 33.493 35.05 33.3604 34.273 32.3183C33.393 31.1377 33.8842 29.3264 35.2776 28.6133C35.6313 28.4321 36.9206 28.3347 38.9809 28.3329C41.745 28.3309 42.2342 28.3869 42.8808 28.7794ZM42.9532 41.6533C43.6806 42.1455 44.0603 42.9463 44.0603 43.9877C44.0603 44.5964 43.8777 44.9685 43.2928 45.551L42.5252 46.3154H26H9.47479L8.70723 45.551C8.11462 44.9608 7.93966 44.5995 7.93966 43.9659C7.93966 42.572 8.55055 41.7666 9.97145 41.288C10.1577 41.2252 17.5229 41.1924 26.3386 41.2153C41.24 41.2538 42.4085 41.2846 42.9532 41.6533ZM42.5853 51.8061C43.4869 52.1813 44.0603 53.1542 44.0603 54.3082C44.0603 54.9418 43.8854 55.3031 43.2928 55.8933L42.5252 56.6577H26H9.47479L8.70723 55.8933C7.83085 55.0205 7.68975 53.9689 8.29297 52.8075C8.98378 51.4771 8.60789 51.505 25.9508 51.4953C39.1676 51.4881 41.9455 51.5399 42.5853 51.8061Z" fill="#1A75E8"/>
</svg>
