<svg width="54" height="72" viewBox="0 0 54 72" fill="none" xmlns="http://www.w3.org/2000/svg">
<path fill-rule="evenodd" clip-rule="evenodd" d="M24.7598 0.256018C21.6924 1.25898 19.398 3.84856 19.057 6.69214L18.9222 7.81593L12.6445 7.90021L6.36681 7.98449L4.88547 8.65569C2.99877 9.51081 1.13541 11.4404 0.471616 13.2263C0.0106113 14.4665 0 15.0732 0 40.1046V65.714L0.660262 67.1109C1.51955 68.9292 3.1228 70.5198 4.92603 71.3425L6.36681 72H27H47.6332L49.074 71.3425C50.8772 70.5198 52.4805 68.9292 53.3397 67.1109L54 65.714V39.9882V14.2623L53.3397 12.8654C52.4786 11.0427 50.8767 9.45517 49.074 8.63776L47.6332 7.98449L41.3555 7.90021L35.0778 7.81593L34.943 6.69214C34.6527 4.27112 32.7433 1.77978 30.3492 0.697432C28.7745 -0.0142787 26.2065 -0.217059 24.7598 0.256018ZM28.9454 6.21953C29.8766 7.24833 29.8639 8.79305 28.9166 9.72849C27.7053 10.9245 26.2947 10.9245 25.0834 9.72849C23.8687 8.52927 24.3302 6.18438 25.9125 5.51527C26.8467 5.12019 28.2441 5.44473 28.9454 6.21953ZM13.6705 14.4246C14.102 16.1045 15.0016 17.2614 16.4191 17.9587L17.6604 18.5693H27H36.3396L37.5809 17.9587C38.9984 17.2614 39.898 16.1045 40.3295 14.4246L40.6104 13.331L43.4143 13.2696C46.6777 13.1979 47.599 13.4961 48.2812 14.8443C48.666 15.6045 48.6936 17.2919 48.6936 39.9882C48.6936 62.6844 48.666 64.3719 48.2812 65.132C47.4155 66.8429 48.4868 66.761 27 66.761C5.51319 66.761 6.58446 66.8429 5.71881 65.132C5.33397 64.3719 5.30638 62.6844 5.30638 39.9882C5.30638 17.2919 5.33397 15.6045 5.71881 14.8443C6.401 13.4961 7.32231 13.1979 10.5857 13.2696L13.3896 13.331L13.6705 14.4246ZM39.1441 29.7176C38.755 29.9579 38.0172 30.586 37.5045 31.1136C36.6382 32.0048 36.4825 32.0725 35.2997 32.0725C34.1669 32.0725 33.9391 32.1594 33.2253 32.8641C32.5792 33.502 32.4236 33.8375 32.4236 34.5923C32.4236 36.3255 33.9368 37.4265 36.3144 37.4233C38.6208 37.4202 39.0361 37.2286 41.0695 35.2295C42.5199 33.803 43.0333 33.1323 43.1517 32.5093C43.5943 30.18 41.1508 28.4779 39.1441 29.7176ZM11.8541 32.5302C10.0383 33.9404 10.6088 36.5593 12.8711 37.2C13.936 37.5015 23.8131 37.4903 24.9216 37.1863C26.1362 36.8531 27 35.7752 27 34.5923C27 33.8375 26.8444 33.502 26.1983 32.8641L25.3965 32.0725H18.92C12.8379 32.0725 12.4077 32.1005 11.8541 32.5302ZM33.2253 46.1344C32.0496 47.2952 32.1265 48.7529 33.439 50.1754L33.9236 50.7006L33.2725 51.3716C32.0362 52.6458 32.2234 54.7124 33.6557 55.5988C34.7284 56.2627 36.0154 56.0842 37.0086 55.1336L37.7637 54.4112L38.2176 54.9064C39.6591 56.479 42.0261 56.3563 42.913 54.6631C43.5523 53.4427 43.2483 52.0803 42.1101 51.0633L41.6085 50.6152L42.3303 49.8799C43.657 48.5285 43.4301 46.496 41.8637 45.696C40.6549 45.0789 39.5577 45.2828 38.3777 46.3437L37.8472 46.821L37.3166 46.3437C35.8775 45.0495 34.4006 44.9741 33.2253 46.1344ZM12.616 48.1581C10.5456 48.999 10.1402 51.4698 11.8541 52.8008C12.4077 53.2306 12.8379 53.2585 18.92 53.2585H25.3965L26.1983 52.467C27.1163 51.5606 27.2705 50.4066 26.6189 49.3175C25.8615 48.0519 25.7099 48.0242 19.2183 47.9695C15.5152 47.938 12.9789 48.0104 12.616 48.1581Z" fill="#1A75E8"/>
</svg>
